inDegrees=no
num_controls=7
num_derivatives=13
num_iterations=119
num_multipliers=7
num_parameters=0
num_slacks=7
num_states=26
objective=0.506321
objective_accelerations=0.014818
objective_balance=0.002363
objective_effort=0.025180
objective_height=0.458133
objective_ligament=0.005828
solver_duration=1416.936258
status=Solve_Succeeded
success=true
DataType=double
version=3
OpenSimVersion=4.5
endheader
time	/jointset/ground_pelvis/pelvis_tilt/value	/jointset/ground_pelvis/pelvis_tx/value	/jointset/ground_pelvis/pelvis_ty/value	/jointset/hip_r/hip_flexion_r/value	/jointset/hip_r/hip_adduction_r/value	/jointset/hip_r/hip_rotation_r/value	/jointset/back/lumbar_extension/value	/jointset/patellofemoral_r/patellar_flexion_r/value	/jointset/knee_r/knee_flexion_r/value	/jointset/knee_r/knee_adduction_r/value	/jointset/knee_r/knee_rotation_r/value	/jointset/ankle_r/ankle_angle_r/value	/jointset/subtalar_r/subtalar_angle_r/value	/jointset/ground_pelvis/pelvis_tilt/speed	/jointset/ground_pelvis/pelvis_tx/speed	/jointset/ground_pelvis/pelvis_ty/speed	/jointset/hip_r/hip_flexion_r/speed	/jointset/hip_r/hip_adduction_r/speed	/jointset/hip_r/hip_rotation_r/speed	/jointset/back/lumbar_extension/speed	/jointset/patellofemoral_r/patellar_flexion_r/speed	/jointset/knee_r/knee_flexion_r/speed	/jointset/knee_r/knee_adduction_r/speed	/jointset/knee_r/knee_rotation_r/speed	/jointset/ankle_r/ankle_angle_r/speed	/jointset/subtalar_r/subtalar_angle_r/speed	/forceset/tau_hip_flexion_r	/forceset/tau_hip_adduction_r	/forceset/tau_hip_rotation_r	/forceset/tau_knee_flexion_r	/forceset/tau_ankle_angle_r	/forceset/tau_subtalar_angle_r	/forceset/tau_lumbar_extension	lambda_cid13_p0	lambda_cid14_p0	lambda_cid14_p1	lambda_cid14_p2	lambda_cid14_p3	lambda_cid14_p4	lambda_cid14_p5	/jointset/ground_pelvis/pelvis_tilt/accel	/jointset/ground_pelvis/pelvis_tx/accel	/jointset/ground_pelvis/pelvis_ty/accel	/jointset/hip_r/hip_flexion_r/accel	/jointset/hip_r/hip_adduction_r/accel	/jointset/hip_r/hip_rotation_r/accel	/jointset/back/lumbar_extension/accel	/jointset/patellofemoral_r/patellar_flexion_r/accel	/jointset/knee_r/knee_flexion_r/accel	/jointset/knee_r/knee_adduction_r/accel	/jointset/knee_r/knee_rotation_r/accel	/jointset/ankle_r/ankle_angle_r/accel	/jointset/subtalar_r/subtalar_angle_r/accel	gamma_cid13_p0	gamma_cid14_p0	gamma_cid14_p1	gamma_cid14_p2	gamma_cid14_p3	gamma_cid14_p4	gamma_cid14_p5
1.5	0.07111530082604052	0.139872115074469	0.9277388235461717	0.2139598829706295	-0.2271619865451355	-0.1930262294039405	-0.2323156912175049	0.3760114367035214	0.3760114367034461	0.09205476988444068	0.1744188388053142	0.2491640663618465	0.05738400341880383	-0.279146738361128	-0.05409992961804692	0.09126173454997602	-0.2076873649820056	0.0289606200136348	-0.2081465194879599	0.6820168675121565	-1.026543394827439	-1.026543394827389	0.1595727196604851	0.0004047062631419276	-0.6028639809766906	-0.1348198870573722	0.06129074031884462	-0.03078277690894958	-0.002512114495504497	-0.2704472841448521	0.005859339612560623	-0.02378473038910319	0.03445100082809021	-42.77492148747785	-41.56704084808933	-12.30479720868745	-3.635610740251394	10.01180399559745	-682.4047474991959	58.2754789349679	-0.1546991022881817	-0.09428924837394199	-0.2004286153688013	-0.002060007906973677	-0.03810406620798207	-0.2613578313964586	0.4675758458543356	-0.4254307996760422	-0.4254307996760403	0.3021789779357031	0.00482813157353609	-0.3525363210729852	-0.05799684066456599	8.180279608716587e-08	8.423498983113337e-08	-6.802701638791115e-07	7.769500671213629e-07	2.526989218384762e-08	1.18281460734784e-07	-1.062395830551964e-06
1.51	0.06831658478145505	0.1393264620853619	0.928641240351462	0.2118828302868671	-0.2268749121036769	-0.1951203979402374	-0.2254731132370664	0.365725905559378	0.3657259055592773	0.0936668461987805	0.1744234272462564	0.2431183117817989	0.05603223340292112	-0.2805556799181278	-0.05502631411441505	0.08920350432631437	-0.207693002005949	0.02844554678389554	-0.2106648132425315	0.6864075852097895	-1.03041634580866	-1.030416345808581	0.1628392582897406	0.0005101221739582932	-0.606207772711803	-0.1355214380285462	0.06300567255861564	-0.03294957297768772	-0.002857138735388651	-0.2687830386405831	0.01123945090239895	-0.02491671973397936	0.03221096846699487	-42.85662673462026	-39.85747705904271	-12.43870751990675	-3.680946077470669	9.370267486932754	-681.4431260769422	58.49408418231283	-0.1278685667430863	-0.09115272334458885	-0.2112152713576078	0.004715678853880028	-0.05946367695534643	-0.2435951786311008	0.4111482268855214	-0.3462706350750311	-0.3462706350707039	0.3383558609562333	0.01307910126874956	-0.3134112906347603	-0.07436909237260925	8.264809571790627e-08	7.606720901582165e-08	-7.330679551480347e-07	7.27180140780119e-07	3.239667880269225e-08	1.17045548828755e-07	-1.033595268206795e-06
1.52	0.06550500394443254	0.1387716773166759	0.9295225358454172	0.2098066274785622	-0.2265932393396362	-0.1972390554203088	-0.2185893623806185	0.35540603622787	0.35540603622775	0.09531148081051423	0.1744290060024075	0.2370414971462191	0.05467382090392089	-0.2817196968486169	-0.05592628553383362	0.08703747228293458	-0.2075173898902165	0.02788028453021652	-0.2130443082428477	0.6902514427141304	-1.033411032299077	-1.033411032298969	0.1660843791404261	0.0006027693020960051	-0.609075992083091	-0.1361483836808716	0.06472060479837136	-0.03511636904641902	-0.003202162975207329	-0.2671187931363252	0.0166195621922373	-0.0260487090788477	0.02997093610588602	-42.92310993967002	-38.14932662257475	-12.57005846759858	-3.729895897821053	8.718152777520617	-680.5151180896752	58.75814711103224	-0.1057141769860442	-0.08900663298403876	-0.2219889793124257	0.03418982002819432	-0.04814187099593389	-0.2335980805453592	0.3582038071959204	-0.2497779015152597	-0.2497779015152599	0.2978954222217234	0.002274375037791232	-0.2574218483081031	-0.04307577689486546	8.580531323859197e-08	7.392069942350993e-08	-7.866800296961473e-07	7.172817415019524e-07	3.714290940661099e-08	1.238424821215839e-07	-1.043984124835682e-06
1.53	0.0626831046054393	0.1382080329811303	0.9303816719628718	0.2077329155686184	-0.2263174864310157	-0.199380876523013	-0.2116700337447057	0.3450605218106237	0.3450605218105692	0.09698848378507903	0.1744354878184159	0.2309383453988725	0.05330948623499141	-0.282618280361845	-0.0567978773121251	0.08477392185252802	-0.2071929162299991	0.02726418766890981	-0.2152952767015319	0.6935192080456498	-1.035540739276348	-1.03554073927632	0.1693050147649794	0.0006882382655428463	-0.6114716909982346	-0.1367022465805158	0.06650867750097279	-0.03738544128557227	-0.003556547048951172	-0.2656439296534649	0.02222450740470509	-0.02730246121894083	0.02768504633721733	-42.97474696073257	-36.37953484067441	-12.74958298632376	-3.764214674846169	8.041498204721963	-679.6576435190325	58.96699676685041	-0.07564252178472909	-0.08552170148554603	-0.230883001765473	0.03639351792801465	-0.06920848103903079	-0.217024035935595	0.2968014327458207	-0.1719191995174827	-0.1719191995294093	0.3324157333455059	0.01100175699222563	-0.218226926015141	-0.05914220021727544	9.141894351734449e-08	7.817179050563562e-08	-8.411572802283984e-07	7.497468397283054e-07	3.935979924467102e-08	1.391743134381993e-07	-1.096011739124505e-06
